<svg id="Hide" xmlns="http://www.w3.org/2000/svg" width="20" height="20" viewBox="0 0 20 20">
  <path id="Path_19042" data-name="Path 19042" d="M106.339,151.2a10.166,10.166,0,0,0-8.264,3.957.351.351,0,0,0,0,.419,10.608,10.608,0,0,0,16.528,0,.35.35,0,0,0,0-.419A10.165,10.165,0,0,0,106.339,151.2Zm0,.906a3.262,3.262,0,1,1-3.333,3.261A3.292,3.292,0,0,1,106.339,152.106Zm-2.517.13a3.927,3.927,0,0,0,0,6.261,9.089,9.089,0,0,1-4.971-3.131A9.086,9.086,0,0,1,103.821,152.236Zm5.035,0a9.086,9.086,0,0,1,4.971,3.131,9.089,9.089,0,0,1-4.971,3.131,3.927,3.927,0,0,0,0-6.261Zm-2.517,1.5a1.631,1.631,0,1,0,1.667,1.63A1.654,1.654,0,0,0,106.339,153.736Zm0,.725a.906.906,0,1,1-.926.906A.91.91,0,0,1,106.339,154.461Z" transform="translate(-96.339 -145.367)"/>
  <rect id="Rectangle_2109" data-name="Rectangle 2109" width="20" height="20" fill="none"/>
</svg>
