<svg width="20" height="20" viewBox="0 0 20 20" fill="none" xmlns="http://www.w3.org/2000/svg">
<path fill-rule="evenodd" clip-rule="evenodd" d="M6.667 18.8H4C3.25739 18.8 2.5452 18.505 2.0201 17.9799C1.495 17.4548 1.2 16.7426 1.2 16V13.333H0V16C0 17.0609 0.421427 18.0783 1.17157 18.8284C1.92172 19.5786 2.93913 20 4 20H6.667V18.8ZM13.334 18.8V20H16C17.0609 20 18.0783 19.5786 18.8284 18.8284C19.5786 18.0783 20 17.0609 20 16V13.333H18.8V16C18.8 16.7426 18.505 17.4548 17.9799 17.9799C17.4548 18.505 16.7426 18.8 16 18.8H13.334ZM18.8 6.667H20V4C20 2.93913 19.5786 1.92172 18.8284 1.17157C18.0783 0.421427 17.0609 0 16 0L13.333 0V1.2H16C16.7426 1.2 17.4548 1.495 17.9799 2.0201C18.505 2.5452 18.8 3.25739 18.8 4V6.667ZM1.2 6.667V4C1.2 3.25739 1.495 2.5452 2.0201 2.0201C2.5452 1.495 3.25739 1.2 4 1.2H6.667V0H4C2.93913 0 1.92172 0.421427 1.17157 1.17157C0.421427 1.92172 0 2.93913 0 4L0 6.667H1.2Z" fill="black"/>
<path fill-rule="evenodd" clip-rule="evenodd" d="M11.736 5.91703L12.236 7.16103C12.2698 7.23411 12.3241 7.29581 12.3922 7.3386C12.4604 7.38139 12.5396 7.40343 12.62 7.40203H14.033C14.1867 7.39229 14.3407 7.41365 14.4859 7.46481C14.6312 7.51598 14.7646 7.5959 14.8782 7.6998C14.9918 7.8037 15.0833 7.92945 15.1472 8.06953C15.2111 8.2096 15.2461 8.36112 15.25 8.51503V12.97C15.2462 13.1236 15.2114 13.2748 15.1479 13.4146C15.0844 13.5544 14.9933 13.6801 14.8803 13.784C14.7672 13.888 14.6343 13.9681 14.4896 14.0196C14.345 14.0712 14.1914 14.0931 14.038 14.084H5.96105C5.8078 14.0929 5.65433 14.0709 5.50976 14.0193C5.36519 13.9677 5.23247 13.8876 5.1195 13.7836C5.00652 13.6797 4.9156 13.5541 4.85213 13.4144C4.78866 13.2746 4.75395 13.1235 4.75005 12.97V8.51503C4.75381 8.36149 4.78843 8.21027 4.85184 8.07038C4.91525 7.9305 5.00615 7.8048 5.11914 7.70077C5.23213 7.59674 5.3649 7.5165 5.50953 7.46483C5.65417 7.41317 5.80772 7.39113 5.96105 7.40003H7.37505C7.45592 7.40343 7.53593 7.38221 7.60449 7.33918C7.67305 7.29615 7.72694 7.23333 7.75905 7.15903L8.25905 5.91503L11.736 5.91703ZM6.85205 6.20003H5.96105C5.65003 6.19098 5.34032 6.24396 5.05 6.3559C4.75969 6.46784 4.49457 6.63648 4.27013 6.85198C4.04569 7.06748 3.86642 7.32553 3.74279 7.61106C3.61916 7.8966 3.55364 8.2039 3.55005 8.51503V12.97C3.55376 13.2812 3.61942 13.5884 3.74317 13.8739C3.86692 14.1594 4.0463 14.4174 4.27083 14.6328C4.49537 14.8482 4.76056 15.0167 5.05093 15.1285C5.3413 15.2404 5.65103 15.2932 5.96205 15.284H14.039C14.35 15.2931 14.6596 15.2401 14.9499 15.1282C15.2401 15.0164 15.5052 14.8478 15.7296 14.6324C15.954 14.417 16.1333 14.1591 16.257 13.8737C16.3807 13.5883 16.4463 13.2811 16.45 12.97V8.51503C16.4465 8.20381 16.3809 7.89643 16.2572 7.61083C16.1335 7.32522 15.9542 7.06713 15.7296 6.85161C15.5051 6.6361 15.2398 6.46748 14.9494 6.3556C14.659 6.24373 14.3492 6.19084 14.038 6.20003H13.147L12.847 5.46403C12.7573 5.24269 12.6035 5.05318 12.4054 4.91974C12.2073 4.78631 11.9739 4.71503 11.735 4.71503H8.26305C8.0242 4.71503 7.79079 4.78631 7.59269 4.91974C7.39459 5.05318 7.24082 5.24269 7.15105 5.46403L6.85205 6.20003Z" fill="black"/>
<path d="M10 12.917C11.3807 12.917 12.5 11.7977 12.5 10.417C12.5 9.03628 11.3807 7.91699 10 7.91699C8.61929 7.91699 7.5 9.03628 7.5 10.417C7.5 11.7977 8.61929 12.917 10 12.917Z" stroke="black"/>
</svg>
